<?xml version="1.0" encoding="UTF-8" standalone="no"?>
<!-- Generator: Adobe Illustrator 15.0.0, SVG Export Plug-In . SVG Version: 6.00 Build 0)  -->

<svg
   xmlns:dc="http://purl.org/dc/elements/1.1/"
   xmlns:cc="http://creativecommons.org/ns#"
   xmlns:rdf="http://www.w3.org/1999/02/22-rdf-syntax-ns#"
   xmlns:svg="http://www.w3.org/2000/svg"
   xmlns="http://www.w3.org/2000/svg"
   xmlns:sodipodi="http://sodipodi.sourceforge.net/DTD/sodipodi-0.dtd"
   xmlns:inkscape="http://www.inkscape.org/namespaces/inkscape"
   version="1.1"
   x="0px"
   y="0px"
   width="626px"
   height="626px"
   viewBox="0 0 626 626"
   enable-background="new 0 0 626 626"
   xml:space="preserve"
   id="svg2"
   inkscape:version="0.48.5 r10040"
   sodipodi:docname="vector-src.svg"><metadata
     id="metadata36"><rdf:RDF><cc:Work
         rdf:about=""><dc:format>image/svg+xml</dc:format><dc:type
           rdf:resource="http://purl.org/dc/dcmitype/StillImage" /><dc:title></dc:title></cc:Work></rdf:RDF></metadata><defs
     id="defs34" /><sodipodi:namedview
     pagecolor="#ffffff"
     bordercolor="#666666"
     borderopacity="1"
     objecttolerance="10"
     gridtolerance="10"
     guidetolerance="10"
     inkscape:pageopacity="0"
     inkscape:pageshadow="2"
     inkscape:window-width="1918"
     inkscape:window-height="1179"
     id="namedview32"
     showgrid="false"
     inkscape:zoom="0.37699681"
     inkscape:cx="854.30564"
     inkscape:cy="-404.72193"
     inkscape:window-x="0"
     inkscape:window-y="19"
     inkscape:window-maximized="1"
     inkscape:current-layer="svg2" /><path
     style="fill:#bbd89c;fill-rule:evenodd"
     inkscape:connector-curvature="0"
     id="path10"
     d="m 1683.2945,431.68036 c -1.0432,-1.53775 -2.0492,-3.0942 -3.016,-4.67274 1.5412,-1.80282 2.7153,-3.64303 3.5258,-5.52232 1.9829,-3.96419 2.9736,-8.32598 2.9736,-13.08367 0,-1.75525 -0.1411,-3.45443 -0.4248,-5.09754 -0.6253,-3.96248 -2.056,-7.61571 -4.2905,-10.95969 0.1904,0.2005 0.3467,0.35512 0.4673,0.46727 l 0.2549,0.29736 c 4.9276,5.53252 7.3914,12.04717 7.3914,19.54054 0,2.98885 -0.3959,5.81969 -1.1894,8.49589 -0.452,1.58363 -1.0467,3.11459 -1.7841,4.58778 -0.8751,2.03052 -2.1784,4.01346 -3.9082,5.94712 z m -12.7013,8.87821 c -3.1282,1.10446 -6.4841,1.6567 -10.0676,1.6567 -4.5538,0 -8.744,-0.90567 -12.574,-2.71869 -3.0296,-1.4443 -5.8332,-3.45443 -8.4109,-6.03208 -1.519,-1.52076 -2.8359,-3.11969 -3.9506,-4.80018 0.1801,0.18012 0.3637,0.36363 0.5523,0.55224 5.8349,5.83327 12.8288,8.75076 20.9848,8.75076 3.6889,0 7.1451,-0.59471 10.365,-1.78414 0.9991,1.47319 2.0339,2.93109 3.101,4.37539 z"
     clip-rule="evenodd" /><polygon
     style="fill:#e7e4d7"
     points="40172,8674 22713,20700 5255,8552 5255,32847 40172,32847 "
     id="polygon3063"
     transform="matrix(0.01242016,0,0,0.01242016,30.099806,107.46498)" /><polygon
     style="fill:#b8b7ae"
     points="22634,20644 5255,32580 5255,32847 22713,20700 "
     id="polygon3065"
     transform="matrix(0.01242016,0,0,0.01242016,30.099806,107.46498)" /><polygon
     style="fill:#b7b6ad"
     points="40172,8674 40182,32847 22713,20700 "
     id="polygon3067"
     transform="matrix(0.01242016,0,0,0.01242016,30.099806,107.46498)" /><path
     style="fill:#658d38;fill-opacity:1"
     inkscape:connector-curvature="0"
     d="m 592.72063,169.7024 0.0745,299.92203 c -1.09297,33.3357 -15.53762,45.23422 -63.62847,45.79313 l -0.12421,-300.23253 63.69058,-45.49505 z"
     id="path3069" /><polygon
     style="fill:#f7f5ed"
     points="3941,250 22713,14168 41608,250 "
     id="polygon3071"
     transform="matrix(0.01242016,0,0,0.01242016,30.099806,107.46498)" /><path
     style="fill:#94c061;fill-opacity:1"
     inkscape:connector-curvature="0"
     d="m 546.87782,110.57002 c 25.21293,0 45.84281,20.62989 45.84281,45.84281 l 0,13.28957 -63.69058,45.49505 -216.83115,149.36484 -216.831153,-150.8801 0,301.74779 -16.32009,0 c -25.212925,0 -45.842811,-20.62989 -45.842811,-45.84282 l 0,-313.16191 c 0,-25.21292 20.629886,-45.84281 45.842811,-45.84281 L 312.1989,283.44623 546.8654,110.58244 z"
     id="path3061" /><g
     id="g3894"
     transform="matrix(0.92029113,0,0,0.92029113,-671.81767,337.59288)"><path
       clip-rule="evenodd"
       d="m 1128.4656,-133.57296 c -19.4695,-18.87242 -42.8791,-28.30863 -70.2277,-28.30863 -28.014,0 -51.905,9.86363 -71.6757,29.5909 -4.65038,4.65958 -8.74838,9.54799 -12.29667,14.66393 -2.95514,4.25189 -5.53152,8.65764 -7.72651,13.21727 -0.61154,0.32879 -1.2244,0.65757 -1.84121,0.98636 l -1.61106,0.88773 c -0.53395,0.32353 -1.07185,0.64048 -1.61105,0.95348 v -0.0329 c 4.94365,-12.15726 12.42949,-23.25976 22.4562,-33.3062 19.7825,-19.74304 43.6735,-29.61851 71.6757,-29.62377 27.9588,0.004 51.8064,9.87941 71.5429,29.62377 0.4432,0.44321 0.8811,0.89168 1.3151,1.34803 z m -8.0224,7.98954 c 0.4353,0.43531 0.8733,0.87457 1.3151,1.31515 4.3611,4.36104 8.1869,8.94171 11.4748,13.74332 9.9294,14.573189 14.8941,31.187483 14.8941,49.844223 0,13.82618 -2.7171,26.52791 -8.154,38.1065 -0.095,0.20384 -0.1933,0.41295 -0.2959,0.62469 -0.6904,1.43351 -1.4256,2.847303 -2.2029,4.241373 -4.0743,7.35563 -9.3126,14.2273004 -15.7161,20.6149804 -6.4547,6.47055 -13.4026,11.7535096 -20.8464,15.8475796 -6.9755,3.82708 -14.3838,6.61126 -22.2247,8.35121 -2.2739,0.50501 -4.5846,0.9206 -6.9374,1.24938 -0.7983,0.1118 -1.5992,0.21043 -2.4002,0.29592 -3.6258,0.4169 -7.3293,0.62601 -11.1117,0.62601 -13.5526,0 -26.0242,-2.60795 -37.416,-7.82515 -2.7579,-1.2757 -5.4526,-2.7 -8.0882,-4.27424 l -0.4274,0.72333 c -0.146,0.23936 -0.2894,0.48003 -0.4261,0.72334 0.4234,-0.78383 0.8851,-1.55188 1.3809,-2.30152 2.7329,1.47823 5.5276,2.79338 8.3841,3.94545 10.4501,4.23347 21.7723,6.34824 33.9637,6.3456 4.6267,0 9.1298,-0.30511 13.5119,-0.9206 0.6918,-0.096 1.3835,-0.20516 2.0714,-0.32879 2.0582,-0.33405 4.0848,-0.73911 6.0825,-1.21651 15.7134,-3.69952 29.6659,-11.65618 41.8547,-23.86998964 7.4135,-7.39903996 13.2541,-15.44382036 17.5244,-24.13302336 0.1262,-0.24462 0.2472,-0.48529 0.3603,-0.72334 5.6355,-11.73903 8.4525,-24.64855 8.4499,-38.73119 0,-17.76769 -4.49,-33.681013 -13.4804,-47.739973 -3.2589,-5.087 -7.1057,-9.9307 -11.5404,-14.53373 z M 970.91059,-7.3513636 C 962.9342,-19.127214 957.82747,-32.102497 955.58908,-46.279827 c 0.15387,-0.0658 0.30643,-0.13152 0.4603,-0.19727 0.56026,-0.26698 1.12971,-0.50765 1.7097,-0.72334 1.75835,14.39433 6.39426,27.578723 13.90772,39.5531734 0.72202,1.15996 1.46639,2.31072 2.23576,3.45227 1.1205,1.62158 2.29362,3.22211996 3.51802,4.80029996 0.92982,1.19547004 1.89382,2.37911004 2.89333,3.55091004 -0.0579,0.0618 -0.1131,0.12757 -0.16438,0.19727 -2.45539,-2.70132 -4.73586,-5.47497 -6.83879,-8.31833 -0.82591,-1.11787 -1.62684,-2.24628 -2.40015,-3.38652 z"
       id="path18"
       inkscape:connector-curvature="0"
       style="fill:#e2e2e2;fill-rule:evenodd" /><path
       clip-rule="evenodd"
       d="m 984.81831,-112.89222 c -6.23776,2.47775 -12.33086,5.30533 -18.2806,8.48273 2.19499,-4.55832 4.77137,-8.96407 7.72651,-13.21727 3.54828,-5.11594 7.64629,-10.00304 12.29666,-14.66393 19.77202,-19.72727 43.66302,-29.5909 71.67572,-29.5909 27.3499,0 50.7595,9.43621 70.2277,28.30863 0.4406,0.41821 0.8786,0.84564 1.3152,1.28227 9.3757,9.37571 16.5327,19.67729 21.4698,30.90604 5.479,12.430811 8.2303,25.999213 8.2526,40.703923 -0.013,8.22101 -0.8798,16.08955 -2.5987,23.60695 -1.7256,7.58185 -4.3216,14.80466 -7.7923,21.667123 -0.049,0.0973 -0.092,0.19464 -0.1315,0.29591 -4.7832,9.3599204 -11.1841,18.0386104 -19.2026,26.03999 -14.0221,14.0537 -30.1208,23.11641 -48.2989,27.19074 -0.1367,0.0382 -0.2669,0.071 -0.3945,0.0986 -3.2484,0.71939 -6.5573,1.27833 -9.9307,1.67682 -1.1429,0.13546 -2.2936,0.25513 -3.4523,0.36035 -3.0998,0.25776 -6.2575,0.3906 -9.4677,0.39454 -15.2124,-0.0237 -29.2082,-2.9604 -41.9876,-8.81019 -2.5369,-1.15602 -5.0251,-2.42778 -7.4634,-3.81394 0.062,-0.3643 0.1289,-0.72597 0.1972,-1.085 0.02,-0.121 0.041,-0.24199 0.066,-0.36036 0.2276,-1.12708 0.5129,-2.2226 0.8549,-3.28787 0.5103,-1.57029 1.1455,-3.07219 1.9056,-4.5057 l 0.067,-0.1644 c 0.1368,-0.2433 0.2802,-0.48398 0.4262,-0.72333 l 0.4274,-0.72334 c 2.6355,1.57424 5.3316,2.99855 8.0882,4.27424 11.3918,5.21721 23.8647,7.82515 37.416,7.82515 3.7824,0 7.4858,-0.20779 11.1117,-0.62601 0.8009,-0.0842 1.6019,-0.18412 2.4002,-0.29591 2.3528,-0.32879 4.6648,-0.74437 6.9374,-1.24939 7.8422,-1.73863 15.2504,-4.52281 22.2247,-8.35121 7.4424,-4.09406 14.3904,-9.3770296 20.8464,-15.8475696 6.4035,-6.38768 11.6431,-13.2593504 15.7161,-20.6149904 0.7773,-1.39538 1.5112,-2.807853 2.2029,-4.241363 0.1013,-0.21174 0.1999,-0.42085 0.2959,-0.6247 5.4369,-11.57859 8.154,-24.28031 8.154,-38.1065 0,-18.65673 -4.9647,-35.271022 -14.8941,-49.844213 -3.2879,-4.8003 -7.1124,-9.38229 -11.4748,-13.74333 -0.4418,-0.44057 -0.8798,-0.87983 -1.3151,-1.31515 -17.2837,-16.6577 -38.0184,-24.96551 -62.2066,-24.92211 -24.8564,-0.0434 -46.075,8.70236 -63.65331,26.23726 -3.62193,3.64034 -6.87561,7.43192 -9.75711,11.37737 z m 152.26159,278.54898 -4.077,3.2208 c -0.263,0.17623 -0.4813,0.32879 -0.6576,0.46162 -0.3511,0.26303 -0.6799,0.48134 -0.9864,0.65757 -1.4913,0.96401 -2.9814,1.92933 -4.4715,2.89334 -0.1315,0.0434 -0.2406,0.10915 -0.3288,0.19595 l 86.2753,86.47118 c 0.1749,0.17623 0.4155,0.41558 0.7234,0.72333 l 1.4466,1.44798 c 1.8412,1.7965 4.0335,2.69606 6.5757,2.69606 2.149,-0.0868 4.0125,-0.72333 5.5894,-1.90697 0.3959,-0.21831 0.7247,-0.50371 0.9864,-0.85353 0.3064,-0.21963 1.6439,0.52475 4.0125,2.23444 2.3239,1.75441 6.7283,6.33508 13.2173,13.74333 6.3995,7.27673 15.5621,12.53733 27.4853,15.78181 -7.8027,1.31515 -19.4419,2.23575 -34.9172,2.76313 -14.6259,0.45899 -25.9361,-2.89465 -33.9309,-10.06091 -1.9228,-1.73074 -3.6535,-3.68242 -5.1948,-5.85242 l -26.4346,-26.43453 h 0.066 l -20.0573,-20.05737 -45.2412,-45.30695 -0.7891,-0.78909 -1.8412,-1.84121 c -6.9703,1.27175 -13.8091,2.21471 -20.5163,2.82757 -1.7847,0.1644 -3.6825,0.30644 -5.6881,0.42611 l 44.6494,-44.61649 c 0.7128,0.6944 1.4138,1.37434 2.1043,2.03848 6.4468,6.3101 11.7837,11.63646 16.0132,15.97909 -0.2196,0.0868 -0.3735,0.21962 -0.4616,0.39454 -1.1823,0.96401 -2.3239,1.90697 -3.4194,2.82758 l -0.1315,-0.0645 z M 980.31391,4.1562164 c -0.99819,-1.1718 -1.96351,-2.35544 -2.89333,-3.55091004 -1.22571,-1.57818 -2.39752,-3.17871996 -3.51802,-4.80029996 -0.76805,-1.14155 -1.51374,-2.29231 -2.23576,-3.45227 -7.51346,-11.9744504 -12.14937,-25.1588434 -13.90772,-39.5531734 l 2.89333,-0.78908 c 0.32089,-0.0789 0.64969,-0.14335 0.98637,-0.19728 h 0.0658 c 0.83249,-0.13152 1.68734,-0.19727 2.56454,-0.19727 0.39455,-0.0868 0.81145,-0.13151 1.2494,-0.13151 0.57077,0 1.14024,0.0447 1.70969,0.13151 0.6589,0 1.27307,0.0658 1.84122,0.19727 h 0.0329 c 1.24413,9.84654 4.01647,19.05259 8.31833,27.61817 1.04292,2.079263 2.17131,4.117743 3.38651,6.115453 0.74833,1.22178 1.52689,2.42646 2.33439,3.61667 1.40722,2.0608404 2.90781,4.0782804 4.5044,6.0496904 -0.31038,0.338 -0.61681,0.67731 -0.92061,1.01924 l -6.41136,7.92379 z"
       id="path20"
       inkscape:connector-curvature="0"
       style="fill:#d3d3d3;fill-rule:evenodd" /><path
       clip-rule="evenodd"
       d="m 990.50633,152.40661 c -1.17442,-1.2494 -2.3357,-2.53298 -3.48514,-3.84682 -2.57112,-2.96171 -4.97127,-5.97604 -7.20046,-9.04166 -16.00801,-22.15635 -23.01119,-47.263904 -21.00953,-75.325274 0.74569,-10.34498 2.60794,-20.09945 5.58939,-29.26211 0.70229,-2.19236 1.46902,-4.33999 2.30151,-6.44424 1.16523,-2.80521 2.41462,-5.58807 3.74819,-8.35121 0.0224,-0.0434 0.0447,-0.0868 0.0658,-0.13151 1.79781,-3.46411 3.74818,-6.79539 5.85243,-9.99647 0.78909,-1.3151396 1.64393,-2.6302896 2.56454,-3.9454496 0.44978,-0.64179 0.91009,-1.27832 1.38091,-1.90697 l 6.41135,-7.92378 c 0.3038,-0.34194 0.61024,-0.68257 0.92061,-1.01924 2.38832,-2.62636 4.93182,-5.16986 7.62788,-7.6278804 0.68256,-0.61943 1.37301,-1.23361 2.07005,-1.84121 0.21963,-0.21963 0.4169,-0.39454 0.59182,-0.52606 0.0434,-0.13152 0.13282,-0.24199 0.26302,-0.32878 5.1738,-4.47152 10.5436,-8.394623 16.1106,-11.770613 20.2086,-12.31902 42.7858,-17.64538 67.7303,-15.97908 h 0.066 c 0.7904,0.0434 4.6688,0.52606 11.6403,1.44667 0.1316,0 0.3288,0.0224 0.5906,0.0658 2.0174,0.35114 3.9678,0.74568 5.8524,1.18363 0.263,0.0434 0.5484,0.10916 0.8548,0.19727 13.0266,3.01038 25.0155,8.13947 35.9694,15.38727 -0.1144,0.23804 -0.2354,0.47872 -0.3604,0.72333 -10.1358,-6.24828 -21.1279,-10.74084 -32.9774,-13.4803 -0.3064,-0.0868 -0.5918,-0.15387 -0.8548,-0.19727 -1.8859,-0.43794 -3.8349,-0.83249 -5.8524,-1.18364 -0.2617,-0.0434 -0.4603,-0.0658 -0.5905,-0.0658 -6.9716,-0.9206 -10.85,-1.40326 -11.6404,-1.44666 h -0.066 c -24.9616,-1.68471 -47.5375,3.64165 -67.7303,15.97908 -5.5499,3.39309 -10.9197,7.316193 -16.1106,11.770603 -0.1315,0.0868 -0.2196,0.19728 -0.263,0.3288 -0.1749,0.1315 -0.3722,0.30642 -0.59183,0.52605 -7.14521,6.2246204 -13.28302,12.9976404 -18.41211,20.3190904 -0.9206,1.3151396 -1.77545,2.6302996 -2.56455,3.9454496 -2.10424,3.20108 -4.0546,6.53236 -5.85242,9.99646 -1.35986,2.80522 -2.6303,5.63279 -3.81393,8.48141 -0.83381,2.11476 -1.60054,4.26371 -2.30151,6.44424 -2.98277,9.16792 -4.84633,18.92239 -5.5894,29.26211 -1.90828,26.76463 4.37157,50.842424 18.83954,72.234664 2.81968,4.1401 5.94317,8.1855 9.37045,12.13358 0.10521,0.11969 0.21437,0.24068 0.32879,0.36036 1.39011,1.59001 2.8039,3.13532 4.24136,4.6359 -1.25203,-1.22309 -2.49089,-2.48432 -3.7153,-3.77974 z M 1061.393,8.6934864 c 0.2433,0.217 0.4839,0.43663 0.7233,0.65757 2.675,2.5434996 4.6701,5.3263596 5.9853,8.3525296 0.1315,0.26171 0.2617,0.5037 0.3945,0.72333 1.1968,2.2134 2.0963,4.52412 2.6961,6.93611 -0.6879,0.12362 -1.3796,0.23278 -2.0714,0.32879 -0.071,-0.47215 -0.1473,-0.94428 -0.2302,-1.41248 -0.5707,-2.98144 -1.5781,-5.80902 -3.0248,-8.48272 -0.1328,-0.21963 -0.263,-0.46162 -0.3946,-0.72333 -0.9837,-2.25943 -2.3422,-4.38603 -4.0782,-6.3797996 z m -44.5836,45.8330096 c 1.1218,1.00215 2.2936,1.9004 3.518,2.69606 4.2545,2.79338 9.1311,4.37156 14.631,4.73454 h 0.3288 c 0.2183,0 0.4156,0.0434 0.5918,0.13284 0.1316,0 0.2618,0 0.3946,0 0.1315,0 0.263,0 0.3945,0 0.1315,0 0.2631,0 0.3946,0 1.4019,0 2.7631,-0.0671 4.0783,-0.19728 0.3064,-0.0868 0.6352,-0.13152 0.9863,-0.13152 l 3.7469,-0.7904 c 3.2879,-0.83249 6.5323,-2.43303 9.7321,-4.79898 0.1315,-0.13284 0.2617,-0.21964 0.3945,-0.26304 0.5708,-0.48266 1.139,-0.964 1.7097,-1.44797 0.043,-0.0868 0.1316,-0.15257 0.2631,-0.19596 0,-0.0868 0.066,-0.15388 0.1959,-0.19728 0.1329,-0.17491 0.242,-0.28539 0.3288,-0.32878 4.4071,-3.84814 7.4753,-8.34069 9.2061,-13.48031 1.1586,-0.1052 2.3094,-0.22619 3.4522,-0.36034 -1.4479,6.40741 -4.791,11.89817 -10.028,16.47094 -0.087,0.0434 -0.1959,0.15388 -0.3288,0.3288 -0.1315,0.0434 -0.1959,0.11047 -0.1959,0.19726 -0.1329,0.0434 -0.2197,0.10917 -0.2631,0.19596 -0.5707,0.48266 -1.1389,0.96401 -1.7096,1.44799 -0.1329,0.0434 -0.2631,0.13151 -0.3946,0.26302 -3.2011,2.36728 -6.4442,3.96781 -9.7321,4.79899 l -3.7482,0.79041 c -0.3511,0 -0.6799,0.0434 -0.9864,0.13152 -1.3151,0.1315 -2.675,0.19726 -4.0782,0.19726 -0.1316,0 -0.2631,0 -0.3946,0 -0.1315,0 -0.263,0 -0.3945,0 -0.1329,0 -0.2631,0 -0.3946,0 -0.1762,-0.0881 -0.3735,-0.13282 -0.5918,-0.13282 h -0.3288 c -6.5876,-0.434 -12.2874,-2.60401 -17.0969,-6.51 -1.2876,-1.0587 -2.5146,-2.24233 -3.6811,-3.55091 z m 132.3041,-69.93315 c 2.2436,1.94642 4.4347,3.99543 6.5757,6.1483304 0.2737,0.27881 0.5472,0.5642 0.822,0.85485 -2.4514,-2.3685904 -4.9607,-4.6043504 -7.5292,-6.7072704 0.04,-0.1 0.083,-0.19859 0.1315,-0.29591 z"
       id="path22"
       inkscape:connector-curvature="0"
       style="fill:#b6b6b6;fill-rule:evenodd" /><path
       clip-rule="evenodd"
       d="m 1191.1654,76.325126 -68.1905,68.157694 -44.6494,44.6165 c -5.4907,0.35377 -11.814,0.56157 -18.971,0.62601 -0.2196,0 -0.3946,0 -0.5261,0 -16.3065,-2.5435 -31.0586,-8.13289 -44.2535,-16.76818 -4.0322,-2.5869 -7.8685,-5.43683 -11.5076,-8.54847 -3.0353,-2.55271 -5.98258,-5.29217 -8.84435,-8.21969 -1.43745,-1.50191 -2.85125,-3.0459 -4.24136,-4.63592 -0.11442,-0.12099 -0.22357,-0.24198 -0.32879,-0.36035 -3.42728,-3.94808 -6.55076,-7.99216 -9.37045,-12.13358 -14.46797,-21.39224 -20.74782,-45.470024 -18.83953,-72.234664 0.74305,-10.33972 2.60662,-20.09419 5.58938,-29.26211 0.70098,-2.18052 1.46772,-4.32948 2.30152,-6.44424 1.18364,-2.84862 2.45539,-5.67619 3.81394,-8.48141 1.79781,-3.46411 3.74818,-6.79538 5.85242,-9.99646 0.78909,-1.31515 1.64394,-2.63031 2.56454,-3.9454596 5.12909,-7.32013 11.26559,-14.09316 18.41212,-20.3190704 0.21966,-0.21964 0.41686,-0.39455 0.59176,-0.52607 0.043,-0.13151 0.1329,-0.24198 0.2631,-0.32878 5.1909,-4.45442 10.5606,-8.377513 16.1106,-11.770603 20.1928,-12.33744 42.7687,-17.6638 67.7303,-15.97909 h 0.066 c 0.7904,0.0434 4.6687,0.52606 11.6404,1.44666 0.1315,0 0.3287,0.0224 0.5904,0.0658 2.0175,0.35115 3.9679,0.7457 5.8525,1.18364 0.263,0.0434 0.5483,0.10916 0.8548,0.19728 11.8495,2.73946 22.8415,7.23201 32.9774,13.48029 -4.2703,8.689203 -10.1109,16.7339834 -17.5244,24.13302336 -12.1901,12.21380964 -26.1412,20.16915964 -41.8546,23.86998964 -1.9977,0.4774 -4.0244,0.88246 -6.0826,1.21651 -0.5997,-2.41198 -1.4993,-4.72402 -2.6961,-6.9361 -0.1328,-0.21963 -0.263,-0.46162 -0.3945,-0.72334 -1.3152,-3.02616 -3.3102,-5.80902 -5.9853,-8.3525196 -0.2393,-0.22094 -0.48,-0.44057 -0.7233,-0.65758 -0.4393,-0.37876 -0.889,-0.74042 -1.3467,-1.085 -0.3235,-0.24987 -0.6523,-0.49186 -0.9864,-0.72333 -4.5688,-3.21423 -10.0148,-5.08963 -16.342,-5.62227 -3.0262,-0.18281 -5.9195,0.0145 -8.68,0.59182 -5.1554,1.08105 -9.8466,3.49305 -14.0721,7.23333 -0.3065,0.21963 -0.5919,0.46162 -0.8536,0.72465 -2.3225,1.9792996 -4.2729,4.1479796 -5.8524,6.5086796 -0.4958,0.74964 -0.9574,1.51769 -1.3809,2.30152 l -0.067,0.16439 c -0.7602,1.43352 -1.3967,2.9341 -1.9057,4.50571 -0.3432,1.06527 -0.6286,2.16079 -0.8548,3.28787 -0.025,0.11968 -0.046,0.24067 -0.066,0.36036 -0.07,0.35903 -0.1368,0.7207 -0.1973,1.085 -0.1499,0.98636 -0.2604,1.99508 -0.3288,3.02484 0,0.0434 0,0.11048 0,0.19728 -0.1183,2.16473 -0.053,4.26898 0.1973,6.31272 0.1078,0.97847 0.2617,1.94379 0.4603,2.89333 1.0968,4.82135 3.4207,9.29286 6.9703,13.41454 0.024,0.0211 0.045,0.0421 0.067,0.0657 h 0.1315 c 0.1749,0.20385 0.3499,0.40243 0.5261,0.59181 1.1665,1.30727 2.3922,2.49222 3.6824,3.5496 4.8095,3.906 10.5094,6.076 17.097,6.51 h 0.3288 c 0.2183,0 0.4155,0.0434 0.5918,0.13283 0.1315,0 0.2617,0 0.3945,0 0.1315,0 0.263,0 0.3946,0 0.1315,0 0.263,0 0.3945,0 1.402,0 2.7631,-0.0671 4.0783,-0.19727 0.3064,-0.0868 0.6352,-0.13152 0.9864,-0.13152 l 3.7442,-0.79041 c 3.2879,-0.83249 6.5323,-2.43303 9.7321,-4.79898 0.1315,-0.13283 0.2617,-0.21963 0.3946,-0.26303 0.5707,-0.48266 1.1389,-0.96401 1.7096,-1.44798 0.043,-0.0868 0.1316,-0.15256 0.2631,-0.19596 0,-0.0868 0.066,-0.15387 0.1959,-0.19727 0.1329,-0.17492 0.242,-0.28539 0.3288,-0.32879 5.237,-4.5741 8.5801,-10.06354 10.028,-16.47095 3.3721,-0.39981 6.6823,-0.95875 9.9308,-1.67682 0.1275,-0.0276 0.2577,-0.0605 0.3945,-0.0986 18.1767,-4.07434 34.2768,-13.13705 48.2989,-27.19075 8.0185,-8.0000596 14.4193,-16.6800596 19.2025,-26.03999 2.5672,2.10161 5.0765,4.33737 7.5292,6.7072704 0.6063,0.57998 1.2087,1.17312 1.8084,1.77545 1.9727,2.01613 3.9231,4.14273 5.8524,6.37847996 1.8399,2.19236004 3.639,4.40576004 5.3922,6.64152004 9.8636,13.0647096 16.5498,27.1144596 20.056,42.1505796 0.7443,3.42072 1.3809,6.86115 1.9069,10.32526 0.043,0.61417 0.043,1.16127 0,1.64393 0.3736,4.98311 0.2526,10.25555 -0.363,15.81075 z"
       id="path24"
       inkscape:connector-curvature="0"
       style="fill:#a3a3a3;fill-rule:evenodd" /><path
       clip-rule="evenodd"
       d="m 1206.5527,189.98705 h -0.032 v 0.0658 c -0.4827,0.0868 -0.9864,0.0434 -1.5125,-0.13284 -0.2524,-0.12625 -0.4721,-0.30116 -0.6575,-0.52474 -0.1513,-0.17228 -0.2841,-0.36956 -0.3945,-0.59182 v -0.19727 c -0.1763,-0.43794 -0.1763,-0.89825 0,-1.38091 l -0.066,0.13283 9.1389,-33.60342 c 0.1329,-0.52474 0.067,-1.07316 -0.1959,-1.64394 -0.2197,-0.48134 -0.5485,-0.89824 -0.9864,-1.24807 -0.1762,-0.0447 -10.7409,-11.55229 -31.6965,-34.52272 2.5869,-5.04229 5.3277,-13.30538 8.2198,-24.791914 0.4208,-1.70312 0.8048,-3.37993 1.1507,-5.03045 -0.01,1.44009 -0.01,3.06167 0,4.86606 0.042,8.0553 -2.2055,17.250834 -6.7401,27.586604 20.9556,22.97043 31.5202,34.478 31.6964,34.52271 0.438,0.35115 0.7668,0.76674 0.9864,1.24808 0.263,0.57077 0.3288,1.11919 0.1959,1.64394 l -7.858,28.90176 -1.2822,4.70166 0.066,-0.13283 c -0.016,0.0421 -0.026,0.0855 -0.033,0.13152 z m 70.7223,25.57968 c 8.6326,7.76466 12.732,19.18543 12.2966,34.261 -0.6142,18.06097 -1.8188,30.9284 -3.6166,38.59968 -0.3065,1.53478 -1.0088,2.95909 -2.1043,4.27424 l -0.1973,0.39455 c -0.4379,0.30642 -0.8535,0.59182 -1.2494,0.85484 -1.052,0.70098 -2.191,1.13892 -3.4193,1.31516 -1.0522,0.26302 -2.2148,0.52474 -3.4852,0.78909 -7.8028,1.31514 -19.4418,2.23575 -34.9172,2.76313 -16.3105,0.51159 -28.498,-3.71794 -36.5612,-12.69121 7.9948,7.16626 19.305,10.5199 33.9309,10.0609 15.4753,-0.52606 27.1145,-1.44797 34.9172,-2.76313 1.2718,-0.26303 2.4344,-0.52474 3.4852,-0.78909 1.2283,-0.17623 2.3672,-0.61417 3.4194,-1.31514 0.3958,-0.26304 0.8114,-0.54843 1.2494,-0.85486 l 0.1973,-0.39454 c 1.0955,-1.31515 1.7964,-2.73946 2.1041,-4.27424 1.7979,-7.67128 3.0026,-20.5374 3.6167,-38.59968 0.3893,-13.45399 -2.8328,-23.99756 -9.6663,-31.6307 z m -40.9341,4.24137 c -0.4695,0.0513 -0.918,0.0184 -1.348,-0.0986 -0.438,-0.26304 -0.7892,-0.61418 -1.0522,-1.05212 -0.087,-0.0868 -0.1315,-0.19728 -0.1315,-0.32879 -0.1762,-0.43926 -0.1973,-0.87721 -0.067,-1.31516 l 0.067,-0.0657 8.8773,-32.94585 c 0.1315,-0.56945 0.1092,-1.11787 -0.067,-1.64393 1.8714,2.53429 2.7684,3.9586 2.6973,4.27424 l -8.8773,32.94584 -0.067,0.0658 c -0.015,0.0513 -0.025,0.10652 -0.032,0.1644 z m -129.1807,-31.33348 c -0.2631,0.0474 -0.5247,0.0907 -0.7891,0.13152 v -0.91929 l 0.7891,0.78777 z"
       id="path26"
       inkscape:connector-curvature="0"
       style="fill:#8f8f8f;fill-rule:evenodd" /><path
       clip-rule="evenodd"
       d="m 1122.9749,144.48282 68.1905,-68.157694 c -0.3761,3.29445 -0.9245,6.6928 -1.6439,10.19242 -0.3459,1.65051 -0.7299,3.32733 -1.1507,5.03045 -2.8921,11.485214 -5.6328,19.749624 -8.2198,24.791914 20.9557,22.97043 31.5203,34.47799 31.6965,34.52271 0.4379,0.35115 0.7667,0.76674 0.9864,1.24808 0.263,0.57078 0.3288,1.1192 0.196,1.64394 l -9.1403,33.6021 0.066,-0.13282 c -0.1763,0.48265 -0.1763,0.94296 0,1.3809 v 0.19859 c 0.1104,0.22226 0.2432,0.41954 0.3945,0.59182 0.1854,0.22358 0.4051,0.39981 0.6575,0.52474 0.5261,0.17623 1.0298,0.21963 1.5125,0.13284 v -0.0658 h 0.032 l 33.3062,-8.74575 c 0.5708,-0.30644 1.0955,-0.2854 1.5782,0.0657 0.438,0.21963 0.8325,0.57078 1.1823,1.05212 0.1763,0.52606 0.1973,1.07448 0.067,1.64394 l -8.8759,32.94453 -0.067,0.0657 c -0.1315,0.43794 -0.1091,0.87589 0.067,1.31515 0,0.13152 0.043,0.24199 0.1315,0.32879 0.263,0.43794 0.6142,0.78909 1.0522,1.05212 0.43,0.11705 0.8785,0.14993 1.348,0.0986 0.051,-0.0132 0.1065,-0.0237 0.1644,-0.0329 v 0.13284 l 0.1315,-0.13284 35.0487,-9.20606 c 2.0727,1.5019 3.935,3.16689 5.5894,4.99758 6.8323,7.63445 10.0557,18.1767 9.6664,31.6307 -0.6141,18.06096 -1.8189,30.9284 -3.6167,38.59968 -0.3064,1.53478 -1.0087,2.95908 -2.1042,4.27424 l -0.1973,0.39454 c -0.4379,0.30643 -0.8535,0.59182 -1.2493,0.85485 -1.0522,0.70098 -2.1911,1.13892 -3.4195,1.31515 -1.0521,0.26303 -2.2147,0.52475 -3.4851,0.78909 -28.2757,-28.40726 -43.158,-43.31319 -44.6481,-44.71513 l -79.0424,-79.37055 c -0.263,-0.13283 -0.4813,-0.30643 -0.6576,-0.52607 l -6.8387,-6.90454 -0.196,0.19728 c -0.1328,0.0868 -0.263,0.21831 -0.3946,0.39454 -4.2295,-4.34394 -9.5651,-9.6703 -16.0132,-15.97908 -0.6905,-0.66416 -1.3915,-1.34409 -2.1043,-2.03849 z m 14.105,21.17394 0.1328,0.0658 h -0.1328 v -0.0658 z"
       id="path28"
       inkscape:connector-curvature="0"
       style="fill:#dbdbdb;fill-rule:evenodd" /><path
       clip-rule="evenodd"
       d="m 1137.0799,165.65676 v 0.0658 h 0.1328 c 1.0955,-0.92061 2.2358,-1.86358 3.4194,-2.82758 0.087,-0.17492 0.242,-0.30643 0.4616,-0.39455 0.1316,-0.17623 0.2617,-0.30643 0.3946,-0.39454 l 0.1959,-0.19728 6.8388,6.90454 c 0.1762,0.21964 0.3946,0.39455 0.6576,0.52607 l 79.0419,79.36936 c 1.4901,1.40195 16.3723,16.30787 44.648,44.71513 -11.9232,-3.24448 -21.0858,-8.50508 -27.4853,-15.78181 -6.489,-7.40825 -10.8934,-11.98892 -13.2173,-13.74333 -2.3686,-1.70969 -3.7048,-2.45407 -4.0125,-2.23444 -0.2617,0.35114 -0.5905,0.63522 -0.9864,0.85353 -1.5769,1.18364 -3.4404,1.82017 -5.5894,1.90697 -2.5422,0 -4.7345,-0.89956 -6.5757,-2.69606 l -1.4466,-1.44798 c -0.3065,-0.30643 -0.5485,-0.5471 -0.7234,-0.72333 l -86.2753,-86.47121 c 0.088,-0.0868 0.1973,-0.15255 0.3288,-0.19595 1.4914,-0.96401 2.9815,-1.92933 4.4715,-2.89334 0.3065,-0.17623 0.6353,-0.39454 0.9864,-0.65757 0.1763,-0.13283 0.3946,-0.28539 0.6576,-0.46162 l 4.077,-3.2208 z"
       id="path30"
       inkscape:connector-curvature="0"
       style="fill:#c8c8c8;fill-rule:evenodd" /></g><path
     style="fill:#94c061;fill-opacity:1"
     inkscape:connector-curvature="0"
     d="m 236.83084,312.31309 -140.726601,-97.9234 0,301.74779 -16.32009,0 c -25.21292,0 -45.84281,-20.62989 -45.84281,-45.84282 l 0,-313.16191 c 0,-25.21292 20.62989,-45.84281 45.84281,-45.84281 L 270.48822,252.6824 c -21.04654,40.34315 -16.40769,38.31046 -33.65738,59.63069 z"
     id="path3061-5"
     sodipodi:nodetypes="cccsssccc" /></svg>